<mxfile host="app.diagrams.net" modified="2022-07-04T00:30:07.252Z" agent="5.0 (Macintosh; Intel Mac OS X 10_15_7) AppleWebKit/537.36 (KHTML, like Gecko) Chrome/102.0.0.0 Safari/537.36" etag="gugyc4SvBjsBEgdsCp6J" version="20.0.4" type="github" pages="3">
  <diagram id="65Mi33oXqD-q-DYAvQKY" name="第 1 页">
    <mxGraphModel dx="1298" dy="843" grid="1" gridSize="10" guides="1" tooltips="1" connect="1" arrows="1" fold="1" page="1" pageScale="1" pageWidth="827" pageHeight="1169" math="0" shadow="0">
      <root>
        <mxCell id="0" />
        <mxCell id="1" parent="0" />
        <mxCell id="OdCXKAyPsm99MGkNIhCj-1" value="Aggregate Message notification platform" style="text;html=1;strokeColor=none;fillColor=none;align=center;verticalAlign=middle;whiteSpace=wrap;rounded=0;fontStyle=1;fontSize=14;fontColor=#67AB9F;" parent="1" vertex="1">
          <mxGeometry width="300" height="30" as="geometry" />
        </mxCell>
        <mxCell id="OdCXKAyPsm99MGkNIhCj-3" value="业务系统" style="rounded=1;whiteSpace=wrap;html=1;fontSize=14;fillColor=#d5e8d4;strokeColor=#82b366;" parent="1" vertex="1">
          <mxGeometry x="10" y="180" width="90" height="40" as="geometry" />
        </mxCell>
        <mxCell id="OdCXKAyPsm99MGkNIhCj-4" value="AMNP" style="rounded=0;whiteSpace=wrap;html=1;fontSize=14;fontColor=#000000;verticalAlign=bottom;" parent="1" vertex="1">
          <mxGeometry x="50" y="450" width="460" height="340" as="geometry" />
        </mxCell>
        <mxCell id="OdCXKAyPsm99MGkNIhCj-5" value="元数据管理" style="rounded=0;whiteSpace=wrap;html=1;fontSize=14;verticalAlign=bottom;" parent="1" vertex="1">
          <mxGeometry x="80" y="620" width="220" height="130" as="geometry" />
        </mxCell>
        <mxCell id="OdCXKAyPsm99MGkNIhCj-6" value="消息类型管理" style="rounded=1;whiteSpace=wrap;html=1;fontSize=14;fontColor=#000000;" parent="1" vertex="1">
          <mxGeometry x="90" y="630" width="90" height="40" as="geometry" />
        </mxCell>
        <mxCell id="OdCXKAyPsm99MGkNIhCj-7" value="消息通道管理" style="rounded=1;whiteSpace=wrap;html=1;fontSize=14;fontColor=#000000;" parent="1" vertex="1">
          <mxGeometry x="90" y="680" width="90" height="40" as="geometry" />
        </mxCell>
        <mxCell id="OdCXKAyPsm99MGkNIhCj-8" value="接入系统管理" style="rounded=1;whiteSpace=wrap;html=1;fontSize=14;fontColor=#000000;" parent="1" vertex="1">
          <mxGeometry x="190" y="630" width="90" height="40" as="geometry" />
        </mxCell>
        <mxCell id="OdCXKAyPsm99MGkNIhCj-9" value="系统和通道绑定关系" style="rounded=1;whiteSpace=wrap;html=1;fontSize=14;fontColor=#000000;" parent="1" vertex="1">
          <mxGeometry x="190" y="680" width="90" height="40" as="geometry" />
        </mxCell>
        <mxCell id="OdCXKAyPsm99MGkNIhCj-10" value="业务场景配置" style="rounded=0;whiteSpace=wrap;html=1;fontSize=14;verticalAlign=bottom;" parent="1" vertex="1">
          <mxGeometry x="80" y="480" width="220" height="130" as="geometry" />
        </mxCell>
        <mxCell id="OdCXKAyPsm99MGkNIhCj-11" value="业务场景管理" style="rounded=1;whiteSpace=wrap;html=1;fontSize=14;fontColor=#000000;" parent="1" vertex="1">
          <mxGeometry x="90" y="500" width="90" height="40" as="geometry" />
        </mxCell>
        <mxCell id="OdCXKAyPsm99MGkNIhCj-12" value="业务数据映射" style="rounded=1;whiteSpace=wrap;html=1;fontSize=14;fontColor=#000000;" parent="1" vertex="1">
          <mxGeometry x="350" y="490" width="90" height="40" as="geometry" />
        </mxCell>
        <mxCell id="OdCXKAyPsm99MGkNIhCj-13" value="聚合消息通知平台" style="rounded=1;whiteSpace=wrap;html=1;fontSize=14;fontColor=#000000;" parent="1" vertex="1">
          <mxGeometry x="180" y="180" width="90" height="40" as="geometry" />
        </mxCell>
        <mxCell id="OdCXKAyPsm99MGkNIhCj-14" value="短信" style="rounded=1;whiteSpace=wrap;html=1;fontSize=14;fillColor=#f8cecc;strokeColor=#b85450;" parent="1" vertex="1">
          <mxGeometry x="414" y="120" width="90" height="40" as="geometry" />
        </mxCell>
        <mxCell id="OdCXKAyPsm99MGkNIhCj-15" value="邮件" style="rounded=1;whiteSpace=wrap;html=1;fontSize=14;fillColor=#f8cecc;strokeColor=#b85450;" parent="1" vertex="1">
          <mxGeometry x="414" y="190" width="90" height="40" as="geometry" />
        </mxCell>
        <mxCell id="OdCXKAyPsm99MGkNIhCj-16" value="......." style="rounded=1;whiteSpace=wrap;html=1;fontSize=14;fillColor=#f8cecc;strokeColor=#b85450;" parent="1" vertex="1">
          <mxGeometry x="414" y="260" width="90" height="40" as="geometry" />
        </mxCell>
        <mxCell id="OdCXKAyPsm99MGkNIhCj-17" value="" style="endArrow=classic;html=1;rounded=0;fontSize=14;fontColor=#000000;exitX=1;exitY=0.5;exitDx=0;exitDy=0;" parent="1" source="OdCXKAyPsm99MGkNIhCj-3" target="OdCXKAyPsm99MGkNIhCj-13" edge="1">
          <mxGeometry width="50" height="50" relative="1" as="geometry">
            <mxPoint x="90" y="150" as="sourcePoint" />
            <mxPoint x="140" y="100" as="targetPoint" />
          </mxGeometry>
        </mxCell>
        <mxCell id="OdCXKAyPsm99MGkNIhCj-20" value="" style="curved=1;endArrow=classic;html=1;rounded=0;fontSize=14;fontColor=#000000;exitX=1;exitY=0.5;exitDx=0;exitDy=0;" parent="1" source="OdCXKAyPsm99MGkNIhCj-13" target="OdCXKAyPsm99MGkNIhCj-14" edge="1">
          <mxGeometry width="50" height="50" relative="1" as="geometry">
            <mxPoint x="290" y="140" as="sourcePoint" />
            <mxPoint x="340" y="90" as="targetPoint" />
            <Array as="points">
              <mxPoint x="310" y="140" />
            </Array>
          </mxGeometry>
        </mxCell>
        <mxCell id="OdCXKAyPsm99MGkNIhCj-23" value="" style="curved=1;endArrow=classic;html=1;rounded=0;fontSize=14;fontColor=#000000;exitX=1;exitY=0.75;exitDx=0;exitDy=0;entryX=0;entryY=0.5;entryDx=0;entryDy=0;" parent="1" source="OdCXKAyPsm99MGkNIhCj-13" target="OdCXKAyPsm99MGkNIhCj-16" edge="1">
          <mxGeometry width="50" height="50" relative="1" as="geometry">
            <mxPoint x="330" y="360" as="sourcePoint" />
            <mxPoint x="380" y="310" as="targetPoint" />
            <Array as="points">
              <mxPoint x="340" y="280" />
            </Array>
          </mxGeometry>
        </mxCell>
        <mxCell id="OdCXKAyPsm99MGkNIhCj-24" value="" style="curved=1;endArrow=classic;html=1;rounded=0;fontSize=14;fontColor=#000000;exitX=1;exitY=0.5;exitDx=0;exitDy=0;entryX=0;entryY=0.5;entryDx=0;entryDy=0;" parent="1" source="OdCXKAyPsm99MGkNIhCj-13" target="OdCXKAyPsm99MGkNIhCj-15" edge="1">
          <mxGeometry width="50" height="50" relative="1" as="geometry">
            <mxPoint x="530" y="400" as="sourcePoint" />
            <mxPoint x="580" y="350" as="targetPoint" />
            <Array as="points">
              <mxPoint x="340" y="200" />
            </Array>
          </mxGeometry>
        </mxCell>
        <mxCell id="OdCXKAyPsm99MGkNIhCj-25" value="消息日志" style="rounded=1;whiteSpace=wrap;html=1;fontSize=14;fontColor=#000000;" parent="1" vertex="1">
          <mxGeometry x="360" y="680" width="90" height="40" as="geometry" />
        </mxCell>
      </root>
    </mxGraphModel>
  </diagram>
  <diagram id="KMacQfEnssi3TWIQPOU7" name="数据ER">
    <mxGraphModel dx="1298" dy="843" grid="1" gridSize="10" guides="1" tooltips="1" connect="1" arrows="1" fold="1" page="1" pageScale="1" pageWidth="827" pageHeight="1169" math="0" shadow="0">
      <root>
        <mxCell id="0" />
        <mxCell id="1" parent="0" />
      </root>
    </mxGraphModel>
  </diagram>
  <diagram id="0sVR2asqOgWMFVd0ZHIz" name="技术架构">
    <mxGraphModel dx="1298" dy="843" grid="1" gridSize="10" guides="1" tooltips="1" connect="1" arrows="1" fold="1" page="1" pageScale="1" pageWidth="827" pageHeight="1169" math="0" shadow="0">
      <root>
        <mxCell id="0" />
        <mxCell id="1" parent="0" />
        <mxCell id="hYbxkuXmCu3TRMhqb8Ne-1" value="" style="endArrow=none;dashed=1;html=1;rounded=0;fillColor=#dae8fc;strokeColor=#6c8ebf;strokeWidth=2;" edge="1" parent="1">
          <mxGeometry width="50" height="50" relative="1" as="geometry">
            <mxPoint x="170" y="650" as="sourcePoint" />
            <mxPoint x="170" y="220" as="targetPoint" />
          </mxGeometry>
        </mxCell>
        <mxCell id="hYbxkuXmCu3TRMhqb8Ne-2" value="接入层" style="text;html=1;strokeColor=none;fillColor=none;align=center;verticalAlign=middle;whiteSpace=wrap;rounded=0;" vertex="1" parent="1">
          <mxGeometry x="60" y="220" width="60" height="30" as="geometry" />
        </mxCell>
        <mxCell id="hYbxkuXmCu3TRMhqb8Ne-3" value="" style="endArrow=none;dashed=1;html=1;rounded=0;fillColor=#dae8fc;strokeColor=#6c8ebf;strokeWidth=2;" edge="1" parent="1">
          <mxGeometry width="50" height="50" relative="1" as="geometry">
            <mxPoint x="440" y="650" as="sourcePoint" />
            <mxPoint x="440" y="220" as="targetPoint" />
          </mxGeometry>
        </mxCell>
        <mxCell id="hYbxkuXmCu3TRMhqb8Ne-4" value="请求处理" style="text;html=1;strokeColor=none;fillColor=none;align=center;verticalAlign=middle;whiteSpace=wrap;rounded=0;" vertex="1" parent="1">
          <mxGeometry x="260" y="220" width="60" height="30" as="geometry" />
        </mxCell>
        <mxCell id="hYbxkuXmCu3TRMhqb8Ne-5" value="通道适配层" style="text;html=1;strokeColor=none;fillColor=none;align=center;verticalAlign=middle;whiteSpace=wrap;rounded=0;" vertex="1" parent="1">
          <mxGeometry x="500" y="220" width="70" height="30" as="geometry" />
        </mxCell>
      </root>
    </mxGraphModel>
  </diagram>
</mxfile>
